# xmcd
#
# Track frame offsets: 
#        182
#        25180
#        60637
#        88687
#        112232
#        139405
#        165977
#        190030
#        223960
#        254350
#
# Disc length: 3564 seconds
#
# Revision: 2
# Processed by: cddbd v1.5.2PL0 Copyright (c) Steve Scherf et al.
# Submitted via: ExactAudioCopy v0.99pb4
#
DISCID=910dea0a
DTITLE=Fred Hersch - Songs Without Words - Vol.3 (Cole Porter)
DYEAR=2001
DGENRE=Jazz
TTITLE0=Get Out of Town
TTITLE1=So in Love
TTITLE2=From This Moment On
TTITLE3=Don't Fence Me In
TTITLE4=Ev'ry Time We Say Goodbye
TTITLE5=All of You
TTITLE6=Easy to Love
TTITLE7=I Concentrate on You
TTITLE8=You're the Top
TTITLE9=Let's Do It
EXTD=YEAR: 2001
EXTT0=
EXTT1=
EXTT2=
EXTT3=
EXTT4=
EXTT5=
EXTT6=
EXTT7=
EXTT8=
EXTT9=
PLAYORDER=
